<svg width="512" height="512" viewBox="0 0 512 512" fill="none" xmlns="http://www.w3.org/2000/svg">
<path d="M112.336 468.296L145.696 501.656C147.196 503.156 149.231 503.998 151.352 503.998C153.473 503.998 155.508 503.156 157.008 501.656L177.008 481.656C178.508 480.156 179.35 478.121 179.35 476C179.35 473.879 178.508 471.844 177.008 470.344L143.648 436.984C142.119 435.539 140.096 434.733 137.992 434.733C135.888 434.733 133.864 435.539 132.336 436.984L128 441.32L115.536 428.856C124.763 416.753 129.046 401.596 127.518 386.453C125.989 371.311 118.763 357.315 107.303 347.3C95.8435 337.285 81.006 331.999 65.7953 332.513C50.5846 333.027 36.1376 339.302 25.3797 350.068C14.6218 360.833 8.35696 375.285 7.85387 390.496C7.35077 405.707 12.647 420.541 22.67 431.993C32.6931 443.446 46.6939 450.662 61.8374 452.18C76.9809 453.698 92.1353 449.404 104.232 440.168L116.688 452.632L112.336 456.984C110.836 458.484 109.994 460.519 109.994 462.64C109.994 464.761 110.836 466.796 112.336 468.296ZM138.008 453.896L160.056 476L151.352 484.704L129.304 462.64L138.008 453.896ZM98.9919 423.584C92.8534 429.716 85.0346 433.891 76.524 435.58C68.0134 437.27 59.1929 436.398 51.1775 433.076C43.1622 429.753 36.3118 424.129 31.4922 416.914C26.6726 409.699 24.1002 401.217 24.1002 392.54C24.1002 383.863 26.6726 375.381 31.4922 368.166C36.3118 360.951 43.1622 355.327 51.1775 352.005C59.1929 348.682 68.0134 347.81 76.524 349.5C85.0346 351.189 92.8534 355.364 98.9919 361.496C103.11 365.554 106.381 370.389 108.613 375.722C110.845 381.055 111.995 386.779 111.995 392.56C111.995 398.341 110.845 404.065 108.613 409.398C106.381 414.731 103.11 419.567 98.9919 423.624V423.584Z" fill="black"/>
<path d="M472 392H462.352C468.211 387.359 472.481 381.009 474.568 373.832C476.655 366.655 476.457 359.006 474 351.946C471.542 344.887 466.949 338.767 460.857 334.437C454.764 330.106 447.475 327.78 440 327.78C432.525 327.78 425.236 330.106 419.143 334.437C413.051 338.767 408.458 344.887 406 351.946C403.543 359.006 403.345 366.655 405.432 373.832C407.519 381.009 411.789 387.359 417.648 392H408C399.513 392 391.374 395.372 385.373 401.373C379.371 407.374 376 415.513 376 424V496C376 498.122 376.843 500.157 378.343 501.657C379.843 503.157 381.878 504 384 504H496C498.122 504 500.157 503.157 501.657 501.657C503.157 500.157 504 498.122 504 496V424C504 415.513 500.629 407.374 494.627 401.373C488.626 395.372 480.487 392 472 392ZM440 344C443.956 344 447.822 345.173 451.111 347.371C454.4 349.568 456.964 352.692 458.478 356.346C459.991 360.001 460.387 364.022 459.616 367.902C458.844 371.782 456.939 375.345 454.142 378.142C451.345 380.939 447.781 382.844 443.902 383.616C440.022 384.388 436.001 383.991 432.346 382.478C428.692 380.964 425.568 378.401 423.371 375.112C421.173 371.823 420 367.956 420 364C420 358.696 422.107 353.609 425.858 349.858C429.609 346.107 434.696 344 440 344ZM488 488H392V424C392 419.757 393.686 415.687 396.686 412.686C399.687 409.686 403.757 408 408 408H472C476.243 408 480.313 409.686 483.314 412.686C486.314 415.687 488 419.757 488 424V488Z" fill="black"/>
<path d="M106.248 111.632C80.763 137.984 62.6938 170.603 53.8699 206.185C45.046 241.767 45.7809 279.049 56 314.256L71.344 309.744C61.9268 277.252 61.2582 242.85 69.406 210.018C77.5538 177.185 94.2288 147.087 117.744 122.768L106.248 111.632Z" fill="black"/>
<path d="M355.848 438.616L348.152 424.592C319.824 440.095 288.053 448.227 255.76 448.24C237.654 448.274 219.637 445.718 202.256 440.648L197.744 456C216.59 461.501 236.127 464.276 255.76 464.24C290.744 464.228 325.162 455.416 355.848 438.616Z" fill="black"/>
<path d="M457.68 305.952C461.736 289.693 463.778 272.997 463.76 256.24C463.883 202.527 443.083 150.877 405.768 112.24L394.232 123.336C428.674 158.994 447.874 206.665 447.76 256.24C447.775 271.681 445.894 287.066 442.16 302.048L457.68 305.952Z" fill="black"/>
<path d="M210.312 343.136L214.192 340.928C218.827 344.31 223.856 347.118 229.168 349.288V353.088C229.217 357.085 230.848 360.899 233.705 363.695C236.562 366.49 240.411 368.038 244.408 368H267.608C271.605 368.038 275.454 366.49 278.311 363.695C281.168 360.899 282.799 357.085 282.848 353.088V349.28C288.116 347.198 293.042 344.34 297.464 340.8L301.704 343.136C305.175 345.036 309.242 345.535 313.07 344.531C316.898 343.527 320.196 341.095 322.288 337.736L333.896 318.536C334.92 316.847 335.59 314.968 335.865 313.012C336.14 311.057 336.014 309.066 335.496 307.16C334.974 305.214 334.062 303.395 332.814 301.814C331.567 300.232 330.011 298.921 328.24 297.96L324.688 296C325.373 290.689 325.373 285.311 324.688 280L328.248 278.032C330.019 277.071 331.575 275.76 332.822 274.179C334.07 272.597 334.982 270.778 335.504 268.832C336.024 266.925 336.15 264.933 335.875 262.975C335.6 261.018 334.929 259.138 333.904 257.448L322.312 238.248C320.226 234.881 316.926 232.442 313.095 231.436C309.263 230.43 305.192 230.932 301.72 232.84L297.84 235.048C293.205 231.666 288.176 228.859 282.864 226.688V222.888C282.809 218.89 281.17 215.077 278.307 212.286C275.444 209.494 271.59 207.953 267.592 208H244.392C240.402 207.972 236.563 209.525 233.715 212.32C230.867 215.114 229.241 218.922 229.192 222.912V226.72C223.924 228.802 218.998 231.66 214.576 235.2L210.336 232.864C206.865 230.964 202.798 230.465 198.97 231.469C195.142 232.473 191.844 234.905 189.752 238.264L178.144 257.464C177.12 259.153 176.45 261.032 176.175 262.988C175.9 264.943 176.026 266.934 176.544 268.84C177.066 270.786 177.978 272.605 179.226 274.187C180.473 275.768 182.03 277.079 183.8 278.04L187.36 280.008C186.675 285.319 186.675 290.697 187.36 296.008L183.8 297.976C182.03 298.937 180.473 300.248 179.226 301.83C177.978 303.411 177.066 305.23 176.544 307.176C176.024 309.083 175.898 311.076 176.173 313.033C176.448 314.99 177.119 316.87 178.144 318.56L189.736 337.76C191.831 341.113 195.13 343.538 198.956 344.538C202.781 345.537 206.844 345.036 210.312 343.136ZM202.8 288C202.8 285.732 202.966 283.468 203.296 281.224C203.676 278.265 203.151 275.261 201.79 272.606C200.429 269.951 198.296 267.771 195.672 266.352L192.472 264.608L203.032 247.136L206.8 249.208C209.428 250.619 212.402 251.254 215.377 251.039C218.351 250.823 221.203 249.767 223.6 247.992C227.235 245.325 231.192 243.127 235.376 241.448C238.21 240.38 240.657 238.481 242.395 236.001C244.133 233.52 245.083 230.573 245.12 227.544V224H266.784V227.544C266.822 230.572 267.771 233.518 269.507 235.998C271.244 238.478 273.688 240.377 276.52 241.448C280.724 243.127 284.699 245.328 288.352 248C290.748 249.777 293.599 250.835 296.574 251.052C299.549 251.269 302.524 250.635 305.152 249.224L308.92 247.152L319.48 264.624L316.28 266.368C313.652 267.785 311.516 269.966 310.155 272.623C308.794 275.28 308.271 278.288 308.656 281.248C308.998 283.483 309.18 285.739 309.2 288C309.2 290.268 309.034 292.533 308.704 294.776C308.324 297.735 308.849 300.74 310.21 303.394C311.571 306.049 313.704 308.229 316.328 309.648L319.528 311.392L308.968 328.864L305.2 326.792C302.572 325.382 299.598 324.748 296.624 324.963C293.649 325.178 290.797 326.234 288.4 328.008C284.765 330.675 280.808 332.874 276.624 334.552C273.79 335.621 271.344 337.519 269.605 340C267.867 342.48 266.917 345.427 266.88 348.456V352H245.168V348.456C245.131 345.428 244.181 342.482 242.445 340.002C240.708 337.522 238.264 335.623 235.432 334.552C231.245 332.87 227.286 330.669 223.648 328C221.252 326.223 218.401 325.165 215.426 324.948C212.451 324.731 209.476 325.365 206.848 326.776L203.08 328.848L192.52 311.376L195.72 309.632C198.348 308.215 200.484 306.034 201.845 303.377C203.206 300.72 203.729 297.713 203.344 294.752C203.002 292.517 202.82 290.261 202.8 288Z" fill="black"/>
<path d="M256 320C262.329 320 268.516 318.123 273.778 314.607C279.041 311.091 283.142 306.093 285.564 300.246C287.986 294.399 288.62 287.965 287.385 281.757C286.15 275.55 283.103 269.848 278.627 265.373C274.152 260.897 268.45 257.85 262.243 256.615C256.035 255.38 249.601 256.014 243.754 258.436C237.907 260.858 232.909 264.959 229.393 270.222C225.877 275.484 224 281.671 224 288C224 296.487 227.371 304.626 233.373 310.627C239.374 316.629 247.513 320 256 320ZM256 272C259.165 272 262.258 272.938 264.889 274.696C267.52 276.455 269.571 278.953 270.782 281.877C271.993 284.801 272.31 288.018 271.693 291.121C271.075 294.225 269.551 297.076 267.314 299.314C265.076 301.551 262.225 303.075 259.121 303.693C256.018 304.31 252.801 303.993 249.877 302.782C246.953 301.571 244.455 299.52 242.696 296.889C240.938 294.258 240 291.165 240 288C240 283.757 241.686 279.687 244.686 276.686C247.687 273.686 251.757 272 256 272Z" fill="black"/>
<path d="M160 40H120V56H160V40Z" fill="black"/>
<path d="M176 72H136V88H176V72Z" fill="black"/>
<path d="M334.248 35C333.498 34.0635 332.547 33.3075 331.466 32.7882C330.384 32.2689 329.2 31.9995 328 32H288V16C288 13.8783 287.157 11.8434 285.657 10.3431C284.157 8.84285 282.122 8 280 8H152C149.878 8 147.843 8.84285 146.343 10.3431C144.843 11.8434 144 13.8783 144 16V32H160V24H272V144H222.528C220.899 139.324 217.855 135.27 213.818 132.402C209.781 129.533 204.952 127.992 200 127.992C195.048 127.992 190.219 129.533 186.182 132.402C182.145 135.27 179.101 139.324 177.472 144H160V96H144V152C144 154.122 144.843 156.157 146.343 157.657C147.843 159.157 149.878 160 152 160H177.472C179.101 164.676 182.145 168.73 186.182 171.598C190.219 174.467 195.048 176.008 200 176.008C204.952 176.008 209.781 174.467 213.818 171.598C217.855 168.73 220.899 164.676 222.528 160H297.472C299.101 164.676 302.145 168.73 306.182 171.598C310.219 174.467 315.048 176.008 320 176.008C324.952 176.008 329.781 174.467 333.818 171.598C337.855 168.73 340.899 164.676 342.528 160H360C362.122 160 364.157 159.157 365.657 157.657C367.157 156.157 368 154.122 368 152V80C368.001 78.1827 367.383 76.4193 366.248 75L334.248 35ZM200 160C198.418 160 196.871 159.531 195.555 158.652C194.24 157.773 193.214 156.523 192.609 155.061C192.003 153.6 191.845 151.991 192.154 150.439C192.462 148.887 193.224 147.462 194.343 146.343C195.462 145.224 196.887 144.462 198.439 144.154C199.991 143.845 201.6 144.003 203.061 144.609C204.523 145.214 205.773 146.24 206.652 147.555C207.531 148.871 208 150.418 208 152C208 154.122 207.157 156.157 205.657 157.657C204.157 159.157 202.122 160 200 160ZM312 48H324.16L343.36 72H312V48ZM320 160C318.418 160 316.871 159.531 315.555 158.652C314.24 157.773 313.214 156.523 312.609 155.061C312.003 153.6 311.845 151.991 312.154 150.439C312.462 148.887 313.224 147.462 314.343 146.343C315.462 145.224 316.887 144.462 318.439 144.154C319.991 143.845 321.6 144.003 323.061 144.609C324.523 145.214 325.773 146.24 326.652 147.555C327.531 148.871 328 150.418 328 152C328 154.122 327.157 156.157 325.657 157.657C324.157 159.157 322.122 160 320 160ZM352 144H342.528C340.899 139.324 337.855 135.27 333.818 132.402C329.781 129.533 324.952 127.992 320 127.992C315.048 127.992 310.219 129.533 306.182 132.402C302.145 135.27 299.101 139.324 297.472 144H288V48H296V80C296 82.1217 296.843 84.1566 298.343 85.6569C299.843 87.1571 301.878 88 304 88H352V144Z" fill="black"/>
</svg>
