<svg width="512" height="512" viewBox="0 0 512 512" fill="none" xmlns="http://www.w3.org/2000/svg">
<g clip-path="url(#clip0_344_2622)">
<path d="M21.2136 211.228C10.7483 212.926 2.65265 221.316 1.3309 231.836C-0.426378 247.77 -0.444069 263.847 1.27951 279.785C2.4808 290.467 10.6261 299.055 21.2304 300.819L48.3832 305.264C53.5961 327.468 62.3959 348.673 74.4349 368.044L58.4526 390.367C52.0839 399.002 52.2381 410.819 58.8283 419.286C63.9148 425.509 69.3273 431.46 75.0414 437.113C80.2812 442.361 86.0745 447.634 93.0295 453.479C101.429 459.939 113.085 460.074 121.633 453.812L144.066 437.718C163.418 449.756 184.602 458.558 206.786 463.778L211.241 490.974C212.934 501.443 221.326 509.543 231.849 510.865C236.713 511.411 241.654 511.795 246.628 512H247.353C251.8 511.997 256.077 510.286 259.3 507.221C262.65 504.02 264.54 499.585 264.53 494.95V426.565C264.48 417.427 257.267 409.936 248.138 409.541C166.463 405.277 102.426 337.81 102.426 256.024C102.426 174.238 166.463 106.77 248.138 102.506C257.281 102.105 264.498 94.5923 264.53 85.4395V17.0884C264.544 12.4492 262.649 8.00971 259.29 4.80937C255.938 1.51974 251.361 -0.216478 246.669 0.0219252C241.703 0.218208 236.779 0.576235 231.727 1.08842C221.211 2.44387 212.86 10.5934 211.247 21.073L206.802 48.2426C184.618 53.4673 163.434 62.2722 144.082 74.312L121.649 58.2522C113.022 51.9434 101.253 52.1312 92.8324 58.713C86.6457 63.7776 80.7244 69.1573 75.092 74.8326C69.2869 80.5072 63.8221 86.5195 58.7255 92.8376C52.2145 101.248 52.0477 112.95 58.3161 121.544L74.4012 144.003C62.3723 163.372 53.5843 184.575 48.3832 206.774L21.2136 211.228ZM63.8205 215.989C68.7814 191.888 78.299 168.956 91.8611 148.424C93.8046 145.471 93.7262 141.626 91.6648 138.755L72.2008 111.577C70.4014 109.202 70.3492 105.935 72.0728 103.504C76.7498 97.7076 81.7681 92.194 87.0998 86.9921C92.2789 81.7607 97.7184 76.7929 103.398 72.11C105.843 70.2465 109.231 70.2465 111.676 72.11L138.811 91.5832C141.686 93.6396 145.531 93.7103 148.48 91.7627C168.994 78.1956 191.914 68.6746 216.004 63.7136C219.467 63.0001 222.131 60.2235 222.703 56.7333L228.07 23.8716C228.455 20.9239 230.719 18.5736 233.651 18.0774C238.164 17.6082 242.739 17.2754 247.466 17.0876L247.278 85.4471C156.43 90.0871 85.1639 165.127 85.2144 256.094C85.2641 347.062 156.613 422.023 247.466 426.563L247.347 494.949C242.764 494.761 238.225 494.403 233.745 493.899C230.8 493.469 228.492 491.147 228.079 488.198L222.703 455.32C222.131 451.83 219.468 449.054 216.004 448.34C191.914 443.374 168.994 433.852 148.48 420.282C145.529 418.336 141.685 418.411 138.811 420.47L111.65 439.96C109.334 441.761 106.116 441.848 103.705 440.173C97.4337 434.891 91.9976 429.934 87.0998 425.043C81.8675 419.873 76.9032 414.44 72.2261 408.762C70.3854 406.304 70.3854 402.927 72.2261 400.468L91.6732 373.315C93.7321 370.442 93.8071 366.597 91.8611 363.646C78.2982 343.118 68.7806 320.188 63.8205 296.089C63.1078 292.628 60.3354 289.965 56.8486 289.39L23.9953 284.005C20.9373 283.5 18.5895 281.02 18.2525 277.938C16.6544 263.261 16.6713 248.452 18.3039 233.779C18.7285 230.831 21.0468 228.516 23.9953 228.096L56.8394 222.72C60.3396 222.147 63.1187 219.467 63.8205 215.989Z" fill="black"/>
<path d="M486.395 230.419C475.586 230.464 465.969 237.294 462.365 247.486H264.531V221.886H401.063C415.201 221.886 426.662 210.425 426.662 196.286V152.05C438.417 147.895 445.468 135.874 443.36 123.586C441.251 111.297 430.596 102.315 418.129 102.315C405.661 102.315 395.006 111.297 392.897 123.586C390.789 135.874 397.84 147.895 409.595 152.05V196.286C409.595 200.999 405.775 204.82 401.061 204.82H264.531V179.22H358.396C363.109 179.22 366.929 175.399 366.929 170.686C366.929 165.973 363.109 162.152 358.396 162.152H264.531V145.086H315.73C329.869 145.086 341.331 133.625 341.331 119.486V66.7177C353.086 62.562 360.137 50.5416 358.028 38.2533C355.92 25.965 345.265 16.9823 332.797 16.9823C320.329 16.9823 309.674 25.965 307.566 38.2533C305.457 50.5416 312.508 62.562 324.263 66.7177V119.487C324.263 124.2 320.443 128.021 315.73 128.021H262.277C259.342 122.565 253.483 119.333 247.302 119.761C175.392 124.316 119.4 183.967 119.4 256.02C119.4 328.074 175.392 387.724 247.302 392.279H248.3C254.13 392.328 259.508 389.149 262.277 384.019H315.73C320.442 384.019 324.263 387.84 324.263 392.553V445.323C312.508 449.478 305.457 461.499 307.566 473.787C309.674 486.076 320.329 495.058 332.797 495.058C345.265 495.058 355.92 486.076 358.028 473.787C360.137 461.499 353.086 449.478 341.331 445.323V392.553C341.331 378.415 329.87 366.953 315.73 366.953H264.531V349.886H358.396C363.109 349.886 366.929 346.066 366.929 341.354C366.929 336.641 363.109 332.82 358.396 332.82H264.531V307.221H401.063C405.775 307.221 409.597 311.041 409.597 315.753V359.99C397.842 364.145 390.79 376.166 392.899 388.454C395.008 400.742 405.662 409.725 418.13 409.725C430.598 409.725 441.253 400.742 443.361 388.454C445.47 376.166 438.419 364.145 426.664 359.99V315.753C426.664 301.615 415.203 290.154 401.065 290.154H264.531V264.552H462.365C466.726 276.794 479.579 283.814 492.236 280.867C504.892 277.921 513.323 265.946 511.829 253.036C510.333 240.129 499.39 230.397 486.395 230.419ZM418.129 119.487C422.842 119.487 426.662 123.308 426.662 128.021C426.662 132.734 422.842 136.555 418.129 136.555C413.417 136.555 409.597 132.734 409.597 128.021C409.597 123.308 413.416 119.487 418.129 119.487ZM332.797 34.1549C337.509 34.1549 341.331 37.9753 341.331 42.6886C341.331 47.4019 337.51 51.2214 332.797 51.2214C328.084 51.2214 324.264 47.4011 324.264 42.6886C324.264 37.9761 328.084 34.1549 332.797 34.1549ZM332.797 477.884C328.084 477.884 324.264 474.064 324.264 469.35C324.264 464.637 328.084 460.817 332.797 460.817C337.509 460.817 341.331 464.637 341.331 469.35C341.331 474.064 337.509 477.884 332.797 477.884ZM418.129 392.551C413.417 392.551 409.597 388.731 409.597 384.018C409.597 379.304 413.417 375.485 418.129 375.485C422.842 375.485 426.662 379.305 426.662 384.018C426.662 388.73 422.842 392.551 418.129 392.551ZM136.532 256.019C136.603 193.38 184.99 141.406 247.464 136.861V375.178C184.99 370.633 136.603 318.658 136.532 256.019ZM486.395 264.552C481.683 264.552 477.862 260.732 477.862 256.019C477.862 251.305 481.682 247.486 486.395 247.486C491.109 247.486 494.929 251.306 494.929 256.019C494.929 260.731 491.108 264.552 486.395 264.552Z" fill="black"/>
</g>
<defs>
<clipPath id="clip0_344_2622">
<rect width="512" height="512" fill="white"/>
</clipPath>
</defs>
</svg>
